<?xml version="1.0" encoding="UTF-8" standalone="no"?>
<!-- Created with Inkscape (http://www.inkscape.org/) -->

<svg
   xmlns:dc="http://purl.org/dc/elements/1.1/"
   xmlns:cc="http://creativecommons.org/ns#"
   xmlns:rdf="http://www.w3.org/1999/02/22-rdf-syntax-ns#"
   xmlns:svg="http://www.w3.org/2000/svg"
   xmlns="http://www.w3.org/2000/svg"
   xmlns:sodipodi="http://sodipodi.sourceforge.net/DTD/sodipodi-0.dtd"
   xmlns:inkscape="http://www.inkscape.org/namespaces/inkscape"
   width="109.07"
   height="123.64906"
   id="svg3136"
   version="1.1"
   inkscape:version="0.48.5 r10040"
   sodipodi:docname="Documento nuevo 3">
  <defs
     id="defs3138" />
  <sodipodi:namedview
     id="base"
     pagecolor="#ffffff"
     bordercolor="#666666"
     borderopacity="1.0"
     inkscape:pageopacity="0.0"
     inkscape:pageshadow="2"
     inkscape:zoom="0.35"
     inkscape:cx="298.82071"
     inkscape:cy="-349.60404"
     inkscape:document-units="px"
     inkscape:current-layer="layer1"
     showgrid="false"
     fit-margin-top="0"
     fit-margin-left="0"
     fit-margin-right="0"
     fit-margin-bottom="0"
     inkscape:window-width="824"
     inkscape:window-height="615"
     inkscape:window-x="1735"
     inkscape:window-y="220"
     inkscape:window-maximized="0" />
  <metadata
     id="metadata3141">
    <rdf:RDF>
      <cc:Work
         rdf:about="">
        <dc:format>image/svg+xml</dc:format>
        <dc:type
           rdf:resource="http://purl.org/dc/dcmitype/StillImage" />
        <dc:title></dc:title>
      </cc:Work>
    </rdf:RDF>
  </metadata>
  <g
     inkscape:label="Capa 1"
     inkscape:groupmode="layer"
     id="layer1"
     transform="translate(-51.17929,-59.10908)">
    <g
       id="g76"
       transform="matrix(1.25,0,0,-1.25,160.24929,148.76658)">
      <path
         d="m 0,0 -0.005,44.535 c 0,1.764 -0.945,3.407 -2.474,4.285 l -38.566,22.27 c -1.475,0.848 -3.484,0.848 -4.956,0 L -84.568,48.82 c -1.523,-0.878 -2.474,-2.521 -2.474,-4.285 l 0,-21.117 c 0,-1.776 0.958,-3.432 2.505,-4.308 L -46.29,-2.612 c 1.478,-0.841 3.477,-0.832 4.935,0.025 l 16.875,9.838 c 1.515,0.885 2.462,2.524 2.458,4.279 l 0,19.922 c 0.004,1.754 -0.938,3.394 -2.454,4.277 l -16.979,9.906 c -1.466,0.86 -3.482,0.869 -4.959,0.015 L -65.857,34.145 c 0.547,-0.324 1.369,-0.805 2.322,-1.361 2.267,-1.335 5.289,-3.105 7.23,-4.263 l 12.338,7.117 12.041,-7.028 0,-14.235 -11.948,-6.963 -0.164,0.094 -33.101,18.794 0,15.372 33.615,19.406 33.615,-19.406 0,-38.813 -33.602,-19.402 -0.164,0.096 -43.581,24.416 0,-10.64 41.255,-23.884 c 1.472,-0.851 3.481,-0.851 4.956,0 L -2.479,-4.289 C -0.95,-3.41 -0.005,-1.765 0,0"
         style="fill:#097593;fill-opacity:1;fill-rule:nonzero;stroke:none"
         id="path78"
         inkscape:connector-curvature="0" />
    </g>
  </g>
</svg>
